# Vectary OBJ Export units=mm
mtllib Project Name.mtl
o 000_Body_Mesh
g Body_Mesh
usemtl 03 - Default_93f7324d-7c0e-4186-a4bc-8b6f1eb8fafc
v 1152.020 1164.469 113.111
v 1170.000 1161.242 105.928
v 1170.000 1196.824 111.076
v 1149.478 1199.667 115.229
v 1125.850 1201.284 111.121
v 1127.922 1168.083 110.306
v 1093.965 1205.355 95.887
v 1095.662 1173.047 94.143
v 1073.732 1204.235 76.734
v 1077.285 1174.881 74.485
v 1057.775 1200.990 56.947
v 1063.209 1173.000 53.561
v 1039.850 1198.709 27.902
v 1044.211 1173.449 28.145
v 1033.428 1198.564 0.534
v 1031.862 1172.630 2.637
v 1154.669 1399.638 100.748
v 1170.000 1393.958 98.317
v 1170.000 1433.469 83.266
v 1150.700 1437.590 87.517
v 1152.395 1368.492 110.463
v 1170.000 1357.254 106.193
v 1141.698 1345.944 118.626
v 1159.202 1333.840 110.170
v 1170.000 1332.391 108.387
v 1114.963 1351.402 119.808
v 1116.046 1333.785 121.237
v 1170.000 1296.021 117.419
v 1152.379 1298.516 121.639
v 1123.605 1314.790 116.152
v 1121.245 1293.292 116.175
v 1082.813 1303.797 107.309
v 1083.097 1288.752 107.086
v 1074.942 1323.824 114.386
v 1119.104 1376.057 113.167
v 1131.381 1406.305 101.574
v 1099.632 1416.003 92.783
v 1080.432 1386.636 102.805
v 1118.099 1450.778 77.307
v 1140.395 1509.408 22.282
v 1123.723 1512.613 10.645
v 1115.057 1503.858 23.203
v 1134.937 1497.663 35.336
v 1098.548 1485.581 44.202
v 1124.944 1479.461 60.584
v 1100.229 1517.783 -5.469
v 1085.358 1507.677 14.814
v 1082.042 1521.767 -17.600
v 1056.812 1516.317 -1.250
v 1152.910 1490.854 47.169
v 1158.841 1505.211 27.418
v 1170.000 1481.359 43.581
v 1170.000 1504.313 27.460
v 1154.500 1465.427 65.665
v 1170.000 1460.370 65.082
v 1151.724 1230.896 121.629
v 1170.000 1228.109 117.118
v 1152.368 1264.087 122.226
v 1170.000 1261.480 119.772
v 1119.283 1259.480 116.042
v 1123.661 1230.174 119.755
v 1087.800 1229.859 103.646
v 1089.347 1257.565 102.663
v 1053.389 1289.073 82.808
v 1055.581 1257.687 82.645
v 1070.628 1227.757 80.631
v 1045.276 1225.937 60.619
v 1030.464 1226.334 29.840
v 1025.641 1225.940 0.766
v 1035.835 1255.013 62.562
v 1022.239 1255.333 30.289
v 1015.898 1255.383 -2.478
v 1032.676 1289.862 59.946
v 1018.200 1289.857 30.540
v 1012.478 1286.988 -5.458
v 1018.267 1316.996 27.345
v 1010.037 1315.507 -7.498
v 1050.692 1306.916 84.129
v 1034.577 1322.117 58.411
v 1067.063 1352.355 110.368
v 1043.786 1323.267 93.667
v 1026.389 1340.123 78.847
v 1001.515 1396.019 -3.995
v 998.747 1395.897 -18.934
v 1009.343 1365.149 -12.575
v 1015.471 1371.698 12.515
v 1009.932 1340.006 -11.136
v 1014.068 1342.151 18.828
v 1021.181 1347.032 34.326
v 1029.808 1362.344 87.888
v 1009.755 1362.308 51.552
v 1013.875 1371.118 67.072
v 1047.729 1399.631 85.683
v 1022.156 1403.303 66.138
v 992.485 1410.044 7.967
v 999.412 1385.843 31.705
v 1004.159 1413.040 44.281
v 991.462 1424.177 23.654
v 1019.126 1439.255 39.506
v 1001.878 1452.007 23.536
v 1062.673 1429.309 77.265
v 1033.920 1435.037 56.516
v 1084.399 1458.118 61.187
v 1068.175 1492.708 18.045
v 1047.422 1466.138 31.284
v 1040.803 1499.723 4.617
v 1022.287 1475.686 15.229
vn 0.04565 -0.07084 0.99644
vn 0.26843 -0.08882 0.95920
vn 0.23014 -0.14076 0.96292
vn 0.03181 -0.14639 0.98872
vn 0.03181 -0.14639 0.98872
vn -0.30993 -0.17270 0.93494
vn -0.32696 -0.05785 0.94327
vn 0.04565 -0.07084 0.99644
vn -0.30993 -0.17270 0.93494
vn -0.55519 -0.19239 0.80917
vn -0.56273 -0.08052 0.82271
vn -0.32696 -0.05785 0.94327
vn -0.55519 -0.19239 0.80917
vn -0.71115 -0.22029 0.66764
vn -0.74260 -0.14106 0.65471
vn -0.56273 -0.08052 0.82271
vn -0.74260 -0.14106 0.65471
vn -0.71115 -0.22029 0.66764
vn -0.77212 -0.27292 0.57388
vn -0.79742 -0.18165 0.57543
vn -0.88469 -0.24159 0.39869
vn -0.87923 -0.11769 0.46164
vn -0.79742 -0.18165 0.57543
vn -0.77212 -0.27292 0.57388
vn -0.94892 -0.17830 0.26030
vn -0.94156 -0.03607 0.33492
vn -0.87923 -0.11769 0.46164
vn -0.88469 -0.24159 0.39869
vn 0.20813 0.30191 0.93034
vn 0.28717 0.29128 0.91252
vn 0.26628 0.44438 0.85535
vn 0.07344 0.47242 0.87831
vn 0.20813 0.30191 0.93034
vn 0.21551 0.23083 0.94883
vn 0.32562 0.14485 0.93434
vn 0.28717 0.29128 0.91252
vn 0.21551 0.23083 0.94883
vn 0.22174 0.04981 0.97383
vn 0.16904 0.08104 0.98227
vn 0.32562 0.14485 0.93434
vn 0.22168 0.21537 0.95104
vn 0.32562 0.14485 0.93434
vn 0.16904 0.08104 0.98227
vn 0.22174 0.04981 0.97383
vn -0.09922 0.20457 0.97381
vn -0.03591 -0.12568 0.99142
vn 0.21226 0.13877 0.96731
vn 0.22168 0.21537 0.95104
vn 0.16904 0.08104 0.98227
vn -0.00554 0.11758 0.99305
vn 0.22174 0.04981 0.97383
vn -0.03591 -0.12568 0.99142
vn -0.04507 -0.08139 0.99566
vn 0.16904 0.08104 0.98227
vn -0.20053 0.02874 0.97927
vn -0.00554 0.11758 0.99305
vn 0.16904 0.08104 0.98227
vn -0.04507 -0.08139 0.99566
vn -0.04507 -0.08139 0.99566
vn -0.35481 -0.26545 0.89646
vn -0.43327 -0.08693 0.89706
vn -0.20053 0.02874 0.97927
vn -0.03591 -0.12568 0.99142
vn -0.31390 -0.21099 0.92572
vn -0.35481 -0.26545 0.89646
vn -0.04507 -0.08139 0.99566
vn 0.21551 0.23083 0.94883
vn -0.04552 0.31947 0.94650
vn -0.09922 0.20457 0.97381
vn 0.22174 0.04981 0.97383
vn 0.07344 0.47242 0.87831
vn -0.03140 0.39083 0.91993
vn 0.20813 0.30191 0.93034
vn 0.20813 0.30191 0.93034
vn -0.03140 0.39083 0.91993
vn -0.04552 0.31947 0.94650
vn 0.21551 0.23083 0.94883
vn -0.03140 0.39083 0.91993
vn -0.17561 0.45746 0.87172
vn -0.24943 0.34738 0.90394
vn -0.04552 0.31947 0.94650
vn -0.14569 0.53115 0.83466
vn -0.17561 0.45746 0.87172
vn -0.03140 0.39083 0.91993
vn 0.07344 0.47242 0.87831
vn -0.09896 0.80139 0.58990
vn -0.09885 0.85960 0.50131
vn -0.15661 0.80465 0.57273
vn -0.06203 0.77899 0.62396
vn -0.06203 0.77899 0.62396
vn -0.15661 0.80465 0.57273
vn -0.29303 0.67646 0.67567
vn -0.09362 0.66025 0.74519
vn -0.09885 0.85960 0.50131
vn -0.02503 0.90339 0.42808
vn -0.15390 0.78450 0.60073
vn -0.15661 0.80465 0.57273
vn -0.02503 0.90339 0.42808
vn 0.00770 0.91736 0.39798
vn -0.13560 0.76921 0.62444
vn -0.15390 0.78450 0.60073
vn 0.16216 0.69643 0.69907
vn 0.13205 0.72846 0.67224
vn -0.09896 0.80139 0.58990
vn -0.06203 0.77899 0.62396
vn 0.16216 0.69643 0.69907
vn 0.34545 0.62148 0.70315
vn 0.32049 0.62955 0.70778
vn 0.13205 0.72846 0.67224
vn 0.14465 0.61259 0.77705
vn -0.09362 0.66025 0.74519
vn -0.14569 0.53115 0.83466
vn 0.07344 0.47242 0.87831
vn 0.16216 0.69643 0.69907
vn -0.06203 0.77899 0.62396
vn -0.09362 0.66025 0.74519
vn 0.14465 0.61259 0.77705
vn 0.14465 0.61259 0.77705
vn 0.07344 0.47242 0.87831
vn 0.26628 0.44438 0.85535
vn 0.30770 0.58671 0.74906
vn 0.14465 0.61259 0.77705
vn 0.30770 0.58671 0.74906
vn 0.34545 0.62148 0.70315
vn 0.16216 0.69643 0.69907
vn 0.00188 -0.10459 0.99451
vn 0.03181 -0.14639 0.98872
vn 0.23014 -0.14076 0.96292
vn 0.18512 -0.12569 0.97464
vn -0.00554 0.11758 0.99305
vn -0.03050 0.01496 0.99942
vn 0.18758 -0.00360 0.98224
vn 0.21226 0.13877 0.96731
vn -0.03050 0.01496 0.99942
vn 0.00188 -0.10459 0.99451
vn 0.18512 -0.12569 0.97464
vn 0.18758 -0.00360 0.98224
vn -0.00554 0.11758 0.99305
vn -0.20053 0.02874 0.97927
vn -0.26124 0.00163 0.96527
vn -0.03050 0.01496 0.99942
vn 0.00188 -0.10459 0.99451
vn -0.28713 -0.11729 0.95068
vn -0.30993 -0.17270 0.93494
vn 0.03181 -0.14639 0.98872
vn -0.03050 0.01496 0.99942
vn -0.26124 0.00163 0.96527
vn -0.28713 -0.11729 0.95068
vn 0.00188 -0.10459 0.99451
vn -0.28713 -0.11729 0.95068
vn -0.53784 -0.17738 0.82417
vn -0.55519 -0.19239 0.80917
vn -0.30993 -0.17270 0.93494
vn -0.20053 0.02874 0.97927
vn -0.43327 -0.08693 0.89706
vn -0.48322 -0.08593 0.87127
vn -0.26124 0.00163 0.96527
vn -0.28713 -0.11729 0.95068
vn -0.26124 0.00163 0.96527
vn -0.48322 -0.08593 0.87127
vn -0.53784 -0.17738 0.82417
vn -0.43327 -0.08693 0.89706
vn -0.67318 -0.07444 0.73572
vn -0.63642 -0.15784 0.75502
vn -0.48322 -0.08593 0.87127
vn -0.53784 -0.17738 0.82417
vn -0.64632 -0.26310 0.71627
vn -0.71115 -0.22029 0.66764
vn -0.55519 -0.19239 0.80917
vn -0.48322 -0.08593 0.87127
vn -0.63642 -0.15784 0.75502
vn -0.64632 -0.26310 0.71627
vn -0.53784 -0.17738 0.82417
vn -0.64632 -0.26310 0.71627
vn -0.75663 -0.32706 0.56616
vn -0.77212 -0.27292 0.57388
vn -0.71115 -0.22029 0.66764
vn -0.75663 -0.32706 0.56616
vn -0.89664 -0.31510 0.31104
vn -0.88469 -0.24159 0.39869
vn -0.77212 -0.27292 0.57388
vn -0.89664 -0.31510 0.31104
vn -0.93991 -0.29011 0.18000
vn -0.94892 -0.17830 0.26030
vn -0.88469 -0.24159 0.39869
vn -0.64632 -0.26310 0.71627
vn -0.63642 -0.15784 0.75502
vn -0.81080 -0.17600 0.55824
vn -0.75663 -0.32706 0.56616
vn -0.81080 -0.17600 0.55824
vn -0.93818 -0.18164 0.29466
vn -0.89664 -0.31510 0.31104
vn -0.75663 -0.32706 0.56616
vn -0.89664 -0.31510 0.31104
vn -0.93818 -0.18164 0.29466
vn -0.96712 -0.18466 0.17489
vn -0.93991 -0.29011 0.18000
vn -0.67318 -0.07444 0.73572
vn -0.84628 -0.01763 0.53244
vn -0.81080 -0.17600 0.55824
vn -0.63642 -0.15784 0.75502
vn -0.84628 -0.01763 0.53244
vn -0.94970 -0.03981 0.31061
vn -0.93818 -0.18164 0.29466
vn -0.81080 -0.17600 0.55824
vn -0.94970 -0.03981 0.31061
vn -0.98055 -0.06615 0.18478
vn -0.96712 -0.18466 0.17489
vn -0.93818 -0.18164 0.29466
vn -0.94696 -0.00107 0.32135
vn -0.98088 -0.03036 0.19223
vn -0.98055 -0.06615 0.18478
vn -0.94970 -0.03981 0.31061
vn -0.35481 -0.26545 0.89646
vn -0.65958 -0.22984 0.71563
vn -0.67318 -0.07444 0.73572
vn -0.43327 -0.08693 0.89706
vn -0.72132 -0.32311 0.61261
vn -0.88391 -0.11507 0.45327
vn -0.84628 -0.01763 0.53244
vn -0.67318 -0.07444 0.73572
vn -0.94696 -0.00107 0.32135
vn -0.94970 -0.03981 0.31061
vn -0.84628 -0.01763 0.53244
vn -0.88391 -0.11507 0.45327
vn -0.04552 0.31947 0.94650
vn -0.24943 0.34738 0.90394
vn -0.36745 0.14956 0.91794
vn -0.09922 0.20457 0.97381
vn -0.36745 0.14956 0.91794
vn -0.23859 -0.09933 0.96603
vn -0.03591 -0.12568 0.99142
vn -0.09922 0.20457 0.97381
vn -0.36406 -0.34482 0.86519
vn -0.65105 -0.31785 0.68927
vn -0.72132 -0.32311 0.61261
vn -0.35481 -0.26545 0.89646
vn -0.31390 -0.21099 0.92572
vn -0.36745 0.14956 0.91794
vn -0.56752 -0.22835 0.79106
vn -0.86759 -0.44917 0.21337
vn -0.90660 -0.22322 0.35812
vn -0.74113 -0.38543 0.54970
vn -0.66982 -0.55630 0.49181
vn -0.89865 -0.43866 0.00374
vn -0.91815 -0.30358 0.25464
vn -0.96950 -0.11682 0.21546
vn -0.95084 -0.30954 0.00994
vn -0.96950 -0.11682 0.21546
vn -0.98301 -0.00067 0.18356
vn -0.95924 0.00703 0.28251
vn -0.96674 -0.07871 0.24335
vn -0.98088 -0.03036 0.19223
vn -0.94696 -0.00107 0.32135
vn -0.95924 0.00703 0.28251
vn -0.98301 -0.00067 0.18356
vn -0.93246 -0.27056 0.23942
vn -0.95924 0.00703 0.28251
vn -0.94696 -0.00107 0.32135
vn -0.90660 -0.22322 0.35812
vn -0.95924 0.00703 0.28251
vn -0.90033 0.01921 0.43478
vn -0.96674 -0.07871 0.24335
vn -0.59364 0.13072 0.79404
vn -0.70844 -0.12370 0.69485
vn -0.56752 -0.22835 0.79106
vn -0.36745 0.14956 0.91794
vn -0.86759 -0.44917 0.21337
vn -0.90728 -0.41318 0.07829
vn -0.91697 -0.39488 0.05695
vn -0.89013 -0.39968 0.21891
vn -0.80776 0.07947 0.58413
vn -0.90435 -0.36250 0.22526
vn -0.83018 -0.35684 0.42832
vn -0.69068 0.03068 0.72250
vn -0.24943 0.34738 0.90394
vn -0.43127 0.35735 0.82843
vn -0.53097 0.17916 0.82824
vn -0.36745 0.14956 0.91794
vn -0.43127 0.35735 0.82843
vn -0.65742 0.31001 0.68680
vn -0.80776 0.07947 0.58413
vn -0.59364 0.13072 0.79404
vn -0.93569 -0.34842 0.05554
vn -0.89865 -0.43866 0.00374
vn -0.88255 -0.46114 -0.09193
vn -0.92465 -0.38056 -0.01441
vn -0.92465 -0.38056 -0.01441
vn -0.88255 -0.46114 -0.09193
vn -0.85359 -0.51074 -0.10261
vn -0.88120 -0.47039 -0.04706
vn -0.90728 -0.41318 0.07829
vn -0.80776 0.07947 0.58413
vn -0.95457 -0.25597 0.15258
vn -0.65742 0.31001 0.68680
vn -0.79082 0.19237 0.58103
vn -0.90497 -0.02116 0.42495
vn -0.80776 0.07947 0.58413
vn -0.93569 -0.34842 0.05554
vn -0.95457 -0.25597 0.15258
vn -0.89825 -0.00316 0.43948
vn -0.94086 -0.12936 0.31314
vn -0.60161 0.34765 0.71917
vn -0.71893 0.27800 0.63706
vn -0.49175 0.49464 0.71660
vn -0.43850 0.46862 0.76689
vn -0.17561 0.45746 0.87172
vn -0.32315 0.53159 0.78293
vn -0.43127 0.35735 0.82843
vn -0.24943 0.34738 0.90394
vn -0.32315 0.53159 0.78293
vn -0.46422 0.56135 0.68512
vn -0.65742 0.31001 0.68680
vn -0.43127 0.35735 0.82843
vn -0.71893 0.27800 0.63706
vn -0.65742 0.31001 0.68680
vn -0.46422 0.56135 0.68512
vn -0.49175 0.49464 0.71660
vn -0.32315 0.53159 0.78293
vn -0.17561 0.45746 0.87172
vn -0.14569 0.53115 0.83466
vn -0.32107 0.60767 0.72639
vn -0.09362 0.66025 0.74519
vn -0.29303 0.67646 0.67567
vn -0.32107 0.60767 0.72639
vn -0.14569 0.53115 0.83466
vn -0.15390 0.78450 0.60073
vn -0.31548 0.62184 0.71679
vn -0.29303 0.67646 0.67567
vn -0.15661 0.80465 0.57273
vn -0.32107 0.60767 0.72639
vn -0.29303 0.67646 0.67567
vn -0.31548 0.62184 0.71679
vn -0.35572 0.62098 0.69845
vn -0.46422 0.56135 0.68512
vn -0.35572 0.62098 0.69845
vn -0.49175 0.49464 0.71660
vn -0.32107 0.60767 0.72639
vn -0.35572 0.62098 0.69845
vn -0.46422 0.56135 0.68512
vn -0.32315 0.53159 0.78293
vn -0.26659 0.55112 0.79070
vn -0.31548 0.62184 0.71679
vn -0.15390 0.78450 0.60073
vn -0.13560 0.76921 0.62444
vn -0.28050 0.55802 0.78098
vn -0.43850 0.46862 0.76689
vn -0.49175 0.49464 0.71660
vn -0.35572 0.62098 0.69845
vn -0.26659 0.55112 0.79070
vn -0.28050 0.55802 0.78098
vn -0.35572 0.62098 0.69845
vn -0.31548 0.62184 0.71679
f 2//2 3//3 4//4 1//1 
f 5//6 6//7 1//8 4//5 
f 7//10 8//11 6//12 5//9 
f 9//14 10//15 8//16 7//13 
f 9//18 11//19 12//20 10//17 
f 14//22 12//23 11//24 13//21 
f 16//26 14//27 13//28 15//25 
f 18//30 19//31 20//32 17//29 
f 21//34 22//35 18//36 17//33 
f 23//38 24//39 22//40 21//37 
f 25//48 24//49 29//50 28//47 
f 27//52 30//53 24//54 23//51 
f 29//56 24//57 30//58 31//55 
f 32//60 33//61 31//62 30//59 
f 34//64 32//65 30//66 27//63 
f 35//68 26//69 23//70 21//67 
f 36//75 35//76 21//77 17//74 
f 37//79 38//80 35//81 36//78 
f 37//83 36//84 20//85 39//82 
f 41//87 42//88 43//89 40//86 
f 42//91 44//92 45//93 43//90 
f 46//95 47//96 42//97 41//94 
f 48//99 49//100 47//101 46//98 
f 51//103 40//104 43//105 50//102 
f 52//107 53//108 51//109 50//106 
f 45//111 39//112 20//113 54//110 
f 43//115 45//116 54//117 50//114 
f 20//119 19//120 55//121 54//118 
f 55//123 52//124 50//125 54//122 
f 4//127 3//128 57//129 56//126 
f 58//131 59//132 28//133 29//130 
f 56//135 57//136 59//137 58//134 
f 31//139 60//140 58//141 29//138 
f 61//143 5//144 4//145 56//142 
f 60//147 61//148 56//149 58//146 
f 62//151 7//152 5//153 61//150 
f 33//155 63//156 60//157 31//154 
f 60//159 63//160 62//161 61//158 
f 64//163 65//164 63//165 33//162 
f 66//167 9//168 7//169 62//166 
f 65//171 66//172 62//173 63//170 
f 67//175 11//176 9//177 66//174 
f 68//179 13//180 11//181 67//178 
f 69//183 15//184 13//185 68//182 
f 65//187 70//188 67//189 66//186 
f 71//191 68//192 67//193 70//190 
f 71//195 72//196 69//197 68//194 
f 73//199 70//200 65//201 64//198 
f 74//203 71//204 70//205 73//202 
f 75//207 72//208 71//209 74//206 
f 77//211 75//212 74//213 76//210 
f 78//215 64//216 33//217 32//214 
f 79//219 73//220 64//221 78//218 
f 74//223 73//224 79//225 76//222 
f 38//227 80//228 26//229 35//226 
f 34//231 27//232 26//233 80//230 
f 81//235 78//236 32//237 34//234 
f 79//242 78//243 81//244 82//241 
f 84//246 85//247 86//248 83//245 
f 87//250 88//251 86//252 85//249 
f 76//254 88//255 87//256 77//253 
f 88//258 76//259 79//260 89//257 
f 82//265 81//266 80//267 90//264 
f 91//269 89//270 79//271 82//268 
f 91//273 82//274 90//275 92//272 
f 93//277 90//278 80//279 38//276 
f 94//281 92//282 90//283 93//280 
f 83//285 86//286 96//287 95//284 
f 86//289 89//290 91//291 96//288 
f 97//296 96//297 92//298 94//295 
f 96//300 97//301 98//302 95//299 
f 97//304 99//305 100//306 98//303 
f 101//308 93//309 38//310 37//307 
f 102//312 94//313 93//314 101//311 
f 94//316 102//317 99//318 97//315 
f 37//320 39//321 103//322 101//319 
f 44//324 103//325 39//326 45//323 
f 104//328 44//329 42//330 47//327 
f 44//332 104//333 105//334 103//331 
f 105//339 102//340 101//341 103//338 
f 104//343 47//344 49//345 106//342 
f 100//347 99//348 105//349 107//346 
f 107//351 105//352 104//353 106//350 
f 25//41 22//42 24//43 
f 23//44 26//45 27//46 
f 20//71 36//72 17//73 
f 34//238 80//239 81//240 
f 88//261 89//262 86//263 
f 91//292 92//293 96//294 
f 102//335 105//336 99//337 
