# Vectary OBJ Export units=mm
mtllib Project Name.mtl
o 000_Body_Mesh
g Body_Mesh
usemtl 03 - Default_93f7324d-7c0e-4186-a4bc-8b6f1eb8fafc
v 1498.485 1396.020 -3.995
v 1484.529 1371.698 12.515
v 1490.657 1365.149 -12.575
v 1501.253 1395.897 -18.934
v 1425.058 1323.824 114.386
v 1456.214 1323.267 93.667
v 1432.937 1352.355 110.368
v 1380.896 1376.057 113.167
v 1385.037 1351.402 119.808
v 1419.568 1386.636 102.805
v 1383.954 1333.785 121.237
v 1347.605 1368.492 110.463
v 1358.302 1345.944 118.626
v 1330.000 1196.824 111.076
v 1330.000 1161.242 105.928
v 1347.980 1164.469 113.111
v 1350.522 1199.667 115.229
v 1348.276 1230.896 121.629
v 1330.000 1228.109 117.118
v 1376.339 1230.174 119.755
v 1380.717 1259.480 116.042
v 1347.632 1264.087 122.226
v 1330.000 1261.480 119.772
v 1347.621 1298.516 121.639
v 1378.755 1293.292 116.175
v 1330.000 1296.021 117.419
v 1330.000 1357.254 106.193
v 1340.798 1333.840 110.170
v 1376.395 1314.790 116.152
v 1330.000 1332.391 108.387
v 1345.331 1399.638 100.748
v 1330.000 1393.958 98.317
v 1368.619 1406.305 101.574
v 1330.000 1433.469 83.266
v 1349.300 1437.590 87.517
v 1345.500 1465.427 65.665
v 1330.000 1460.370 65.082
v 1400.368 1416.003 92.783
v 1381.901 1450.778 77.307
v 1452.271 1399.631 85.683
v 1437.327 1429.309 77.265
v 1417.187 1303.797 107.309
v 1449.308 1306.916 84.129
v 1416.903 1288.752 107.086
v 1446.611 1289.073 82.808
v 1410.653 1257.565 102.663
v 1374.150 1201.284 111.121
v 1372.078 1168.083 110.306
v 1404.338 1173.047 94.143
v 1406.035 1205.355 95.887
v 1412.200 1229.859 103.646
v 1422.715 1174.881 74.485
v 1426.268 1204.235 76.734
v 1442.225 1200.990 56.947
v 1436.791 1173.000 53.561
v 1455.789 1173.449 28.145
v 1460.150 1198.709 27.902
v 1466.572 1198.564 0.534
v 1468.138 1172.630 2.637
v 1444.419 1257.687 82.645
v 1429.372 1227.757 80.631
v 1454.724 1225.937 60.619
v 1464.165 1255.013 62.562
v 1469.536 1226.334 29.840
v 1474.359 1225.940 0.766
v 1477.761 1255.333 30.289
v 1484.102 1255.383 -2.478
v 1467.324 1289.862 59.946
v 1481.800 1289.857 30.540
v 1487.522 1286.988 -5.458
v 1465.423 1322.117 58.411
v 1473.611 1340.123 78.847
v 1470.192 1362.344 87.888
v 1481.733 1316.996 27.345
v 1489.963 1315.507 -7.498
v 1485.932 1342.151 18.828
v 1490.068 1340.006 -11.136
v 1478.819 1347.032 34.326
v 1490.245 1362.308 51.552
v 1486.125 1371.118 67.072
v 1477.844 1403.303 66.138
v 1500.588 1385.843 31.705
v 1507.515 1410.044 7.967
v 1495.841 1413.040 44.281
v 1508.538 1424.177 23.654
v 1466.080 1435.037 56.516
v 1480.874 1439.255 39.506
v 1498.122 1452.007 23.536
v 1452.578 1466.138 31.284
v 1477.713 1475.686 15.229
v 1415.601 1458.118 61.187
v 1459.197 1499.723 4.617
v 1431.825 1492.708 18.045
v 1414.642 1507.677 14.814
v 1443.188 1516.317 -1.250
v 1399.771 1517.783 -5.469
v 1417.958 1521.767 -17.600
v 1401.452 1485.581 44.202
v 1375.056 1479.461 60.584
v 1376.277 1512.613 10.645
v 1384.943 1503.858 23.203
v 1365.063 1497.663 35.336
v 1359.605 1509.408 22.282
v 1330.000 1504.313 27.460
v 1330.000 1481.359 43.581
v 1347.090 1490.854 47.169
v 1341.159 1505.211 27.418
vn 0.89865 -0.43866 0.00374
vn 0.95084 -0.30954 0.00994
vn 0.96950 -0.11682 0.21546
vn 0.91815 -0.30358 0.25464
vn 0.31390 -0.21099 0.92572
vn 0.56752 -0.22835 0.79106
vn 0.36745 0.14956 0.91794
vn 0.04552 0.31947 0.94650
vn 0.09922 0.20457 0.97381
vn 0.36745 0.14956 0.91794
vn 0.24943 0.34738 0.90394
vn 0.36745 0.14956 0.91794
vn 0.09922 0.20457 0.97381
vn 0.03591 -0.12568 0.99142
vn 0.23859 -0.09933 0.96603
vn 0.09922 0.20457 0.97381
vn 0.04552 0.31947 0.94650
vn -0.21551 0.23083 0.94883
vn -0.22174 0.04981 0.97383
vn -0.22174 0.04981 0.97383
vn 0.03591 -0.12568 0.99142
vn 0.09922 0.20457 0.97381
vn -0.23014 -0.14076 0.96292
vn -0.26843 -0.08882 0.95920
vn -0.04565 -0.07084 0.99644
vn -0.03181 -0.14639 0.98872
vn -0.00188 -0.10459 0.99451
vn -0.18512 -0.12569 0.97464
vn -0.23014 -0.14076 0.96292
vn -0.03181 -0.14639 0.98872
vn 0.28713 -0.11729 0.95068
vn 0.26124 0.00163 0.96527
vn 0.03050 0.01496 0.99942
vn -0.00188 -0.10459 0.99451
vn 0.03050 0.01496 0.99942
vn -0.18758 -0.00360 0.98224
vn -0.18512 -0.12569 0.97464
vn -0.00188 -0.10459 0.99451
vn 0.00554 0.11758 0.99305
vn 0.03050 0.01496 0.99942
vn 0.26124 0.00163 0.96527
vn 0.20053 0.02874 0.97927
vn 0.00554 0.11758 0.99305
vn -0.21226 0.13877 0.96731
vn -0.18758 -0.00360 0.98224
vn 0.03050 0.01496 0.99942
vn -0.21551 0.23083 0.94883
vn -0.32562 0.14485 0.93434
vn -0.16904 0.08104 0.98227
vn -0.22174 0.04981 0.97383
vn -0.22174 0.04981 0.97383
vn -0.16904 0.08104 0.98227
vn 0.04507 -0.08139 0.99566
vn 0.03591 -0.12568 0.99142
vn -0.16904 0.08104 0.98227
vn 0.00554 0.11758 0.99305
vn 0.20053 0.02874 0.97927
vn 0.04507 -0.08139 0.99566
vn -0.16904 0.08104 0.98227
vn -0.22168 0.21537 0.95104
vn -0.21226 0.13877 0.96731
vn 0.00554 0.11758 0.99305
vn -0.22168 0.21537 0.95104
vn -0.16904 0.08104 0.98227
vn -0.32562 0.14485 0.93434
vn -0.20813 0.30191 0.93034
vn -0.28717 0.29128 0.91252
vn -0.32562 0.14485 0.93434
vn -0.21551 0.23083 0.94883
vn 0.04552 0.31947 0.94650
vn 0.03140 0.39083 0.91993
vn -0.20813 0.30191 0.93034
vn -0.21551 0.23083 0.94883
vn -0.26628 0.44438 0.85535
vn -0.28717 0.29128 0.91252
vn -0.20813 0.30191 0.93034
vn -0.07344 0.47242 0.87831
vn -0.07344 0.47242 0.87831
vn -0.20813 0.30191 0.93034
vn 0.03140 0.39083 0.91993
vn -0.14465 0.61259 0.77705
vn -0.30770 0.58671 0.74906
vn -0.26628 0.44438 0.85535
vn -0.07344 0.47242 0.87831
vn 0.03140 0.39083 0.91993
vn 0.04552 0.31947 0.94650
vn 0.24943 0.34738 0.90394
vn 0.17561 0.45746 0.87172
vn 0.03140 0.39083 0.91993
vn 0.17561 0.45746 0.87172
vn 0.14569 0.53115 0.83466
vn -0.07344 0.47242 0.87831
vn 0.17561 0.45746 0.87172
vn 0.24943 0.34738 0.90394
vn 0.43127 0.35735 0.82843
vn 0.32315 0.53159 0.78293
vn 0.03591 -0.12568 0.99142
vn 0.04507 -0.08139 0.99566
vn 0.35481 -0.26545 0.89646
vn 0.31390 -0.21099 0.92572
vn 0.36406 -0.34482 0.86519
vn 0.35481 -0.26545 0.89646
vn 0.72132 -0.32311 0.61261
vn 0.65105 -0.31785 0.68927
vn 0.04507 -0.08139 0.99566
vn 0.20053 0.02874 0.97927
vn 0.43327 -0.08693 0.89706
vn 0.35481 -0.26545 0.89646
vn 0.35481 -0.26545 0.89646
vn 0.43327 -0.08693 0.89706
vn 0.67318 -0.07444 0.73572
vn 0.65958 -0.22984 0.71563
vn 0.20053 0.02874 0.97927
vn 0.26124 0.00163 0.96527
vn 0.48322 -0.08593 0.87127
vn 0.43327 -0.08693 0.89706
vn -0.00188 -0.10459 0.99451
vn -0.03181 -0.14639 0.98872
vn 0.30993 -0.17270 0.93494
vn 0.28713 -0.11729 0.95068
vn 0.32696 -0.05785 0.94327
vn 0.30993 -0.17270 0.93494
vn -0.03181 -0.14639 0.98872
vn -0.04565 -0.07084 0.99644
vn 0.56273 -0.08052 0.82271
vn 0.55519 -0.19239 0.80917
vn 0.30993 -0.17270 0.93494
vn 0.32696 -0.05785 0.94327
vn 0.28713 -0.11729 0.95068
vn 0.53784 -0.17738 0.82417
vn 0.48322 -0.08593 0.87127
vn 0.26124 0.00163 0.96527
vn 0.28713 -0.11729 0.95068
vn 0.30993 -0.17270 0.93494
vn 0.55519 -0.19239 0.80917
vn 0.53784 -0.17738 0.82417
vn 0.74260 -0.14106 0.65471
vn 0.71115 -0.22029 0.66764
vn 0.55519 -0.19239 0.80917
vn 0.56273 -0.08052 0.82271
vn 0.77212 -0.27292 0.57388
vn 0.71115 -0.22029 0.66764
vn 0.74260 -0.14106 0.65471
vn 0.79742 -0.18165 0.57543
vn 0.79742 -0.18165 0.57543
vn 0.87923 -0.11769 0.46164
vn 0.88469 -0.24159 0.39869
vn 0.77212 -0.27292 0.57388
vn 0.94892 -0.17830 0.26030
vn 0.88469 -0.24159 0.39869
vn 0.87923 -0.11769 0.46164
vn 0.94156 -0.03607 0.33492
vn 0.43327 -0.08693 0.89706
vn 0.48322 -0.08593 0.87127
vn 0.63642 -0.15784 0.75502
vn 0.67318 -0.07444 0.73572
vn 0.64632 -0.26310 0.71627
vn 0.63642 -0.15784 0.75502
vn 0.48322 -0.08593 0.87127
vn 0.53784 -0.17738 0.82417
vn 0.53784 -0.17738 0.82417
vn 0.55519 -0.19239 0.80917
vn 0.71115 -0.22029 0.66764
vn 0.64632 -0.26310 0.71627
vn 0.64632 -0.26310 0.71627
vn 0.71115 -0.22029 0.66764
vn 0.77212 -0.27292 0.57388
vn 0.75663 -0.32706 0.56616
vn 0.64632 -0.26310 0.71627
vn 0.75663 -0.32706 0.56616
vn 0.81080 -0.17600 0.55824
vn 0.63642 -0.15784 0.75502
vn 0.75663 -0.32706 0.56616
vn 0.77212 -0.27292 0.57388
vn 0.88469 -0.24159 0.39869
vn 0.89664 -0.31510 0.31104
vn 0.89664 -0.31510 0.31104
vn 0.88469 -0.24159 0.39869
vn 0.94892 -0.17830 0.26030
vn 0.93991 -0.29011 0.17999
vn 0.89664 -0.31510 0.31104
vn 0.93818 -0.18164 0.29466
vn 0.81080 -0.17600 0.55824
vn 0.75663 -0.32706 0.56616
vn 0.89664 -0.31510 0.31104
vn 0.93991 -0.29011 0.17999
vn 0.96712 -0.18466 0.17489
vn 0.93818 -0.18164 0.29466
vn 0.67318 -0.07444 0.73572
vn 0.63642 -0.15784 0.75502
vn 0.81080 -0.17600 0.55824
vn 0.84628 -0.01763 0.53244
vn 0.84628 -0.01763 0.53244
vn 0.81080 -0.17600 0.55824
vn 0.93818 -0.18164 0.29466
vn 0.94970 -0.03981 0.31061
vn 0.94970 -0.03981 0.31061
vn 0.93818 -0.18164 0.29466
vn 0.96712 -0.18466 0.17489
vn 0.98055 -0.06615 0.18478
vn 0.72132 -0.32311 0.61261
vn 0.67318 -0.07444 0.73572
vn 0.84628 -0.01763 0.53244
vn 0.88391 -0.11507 0.45327
vn 0.74113 -0.38543 0.54970
vn 0.90660 -0.22321 0.35812
vn 0.86759 -0.44917 0.21337
vn 0.66982 -0.55630 0.49181
vn 0.59364 0.13072 0.79404
vn 0.36745 0.14956 0.91794
vn 0.56752 -0.22835 0.79106
vn 0.70844 -0.12370 0.69485
vn 0.24943 0.34738 0.90394
vn 0.36745 0.14956 0.91794
vn 0.53097 0.17916 0.82824
vn 0.43127 0.35735 0.82843
vn 0.94696 -0.00107 0.32135
vn 0.88391 -0.11507 0.45327
vn 0.84628 -0.01763 0.53244
vn 0.94970 -0.03981 0.31061
vn 0.94696 -0.00107 0.32135
vn 0.94970 -0.03981 0.31061
vn 0.98055 -0.06615 0.18478
vn 0.98088 -0.03036 0.19223
vn 0.96950 -0.11682 0.21546
vn 0.96674 -0.07871 0.24335
vn 0.95924 0.00703 0.28251
vn 0.98301 -0.00067 0.18356
vn 0.95924 0.00703 0.28251
vn 0.96674 -0.07871 0.24335
vn 0.90033 0.01921 0.43478
vn 0.93246 -0.27056 0.23942
vn 0.90660 -0.22321 0.35812
vn 0.94696 -0.00107 0.32135
vn 0.95924 0.00703 0.28251
vn 0.95924 0.00703 0.28251
vn 0.94696 -0.00107 0.32135
vn 0.98088 -0.03036 0.19223
vn 0.98301 -0.00067 0.18356
vn 0.86759 -0.44917 0.21337
vn 0.89013 -0.39968 0.21891
vn 0.91697 -0.39488 0.05695
vn 0.90728 -0.41318 0.07829
vn 0.80776 0.07947 0.58413
vn 0.69069 0.03068 0.72250
vn 0.83018 -0.35684 0.42832
vn 0.90435 -0.36250 0.22526
vn 0.43127 0.35735 0.82843
vn 0.59364 0.13072 0.79404
vn 0.80776 0.07947 0.58413
vn 0.65742 0.31001 0.68680
vn 0.85359 -0.51074 -0.10261
vn 0.88255 -0.46114 -0.09193
vn 0.92465 -0.38056 -0.01441
vn 0.88120 -0.47039 -0.04706
vn 0.88255 -0.46114 -0.09193
vn 0.89865 -0.43866 0.00374
vn 0.93569 -0.34843 0.05554
vn 0.92465 -0.38056 -0.01441
vn 0.90728 -0.41318 0.07829
vn 0.95457 -0.25597 0.15258
vn 0.80776 0.07947 0.58413
vn 0.65742 0.31001 0.68680
vn 0.80776 0.07947 0.58413
vn 0.90497 -0.02116 0.42495
vn 0.79082 0.19237 0.58103
vn 0.89825 -0.00316 0.43948
vn 0.95457 -0.25597 0.15258
vn 0.93569 -0.34843 0.05554
vn 0.94086 -0.12936 0.31314
vn 0.32315 0.53159 0.78293
vn 0.43127 0.35735 0.82843
vn 0.65742 0.31001 0.68680
vn 0.46422 0.56135 0.68512
vn 0.71893 0.27800 0.63706
vn 0.49175 0.49464 0.71660
vn 0.46422 0.56135 0.68512
vn 0.65742 0.31001 0.68680
vn 0.49175 0.49464 0.71660
vn 0.71893 0.27800 0.63706
vn 0.60161 0.34765 0.71917
vn 0.43850 0.46862 0.76689
vn 0.46422 0.56135 0.68512
vn 0.49175 0.49464 0.71660
vn 0.35572 0.62098 0.69845
vn 0.28050 0.55802 0.78098
vn 0.35572 0.62098 0.69845
vn 0.49175 0.49464 0.71660
vn 0.43850 0.46862 0.76689
vn 0.14569 0.53115 0.83466
vn 0.17561 0.45746 0.87172
vn 0.32315 0.53159 0.78293
vn 0.32107 0.60767 0.72639
vn 0.32107 0.60767 0.72639
vn 0.32315 0.53159 0.78293
vn 0.46422 0.56135 0.68512
vn 0.35572 0.62098 0.69845
vn 0.26659 0.55112 0.79070
vn 0.31548 0.62184 0.71679
vn 0.35572 0.62098 0.69845
vn 0.28050 0.55802 0.78098
vn 0.15390 0.78450 0.60073
vn 0.31548 0.62184 0.71679
vn 0.26659 0.55112 0.79070
vn 0.13560 0.76921 0.62444
vn 0.02503 0.90339 0.42808
vn 0.15390 0.78450 0.60073
vn 0.13560 0.76921 0.62444
vn -0.00770 0.91736 0.39798
vn 0.31548 0.62184 0.71679
vn 0.29303 0.67646 0.67567
vn 0.32107 0.60767 0.72639
vn 0.35572 0.62098 0.69845
vn 0.14569 0.53115 0.83466
vn 0.09362 0.66025 0.74519
vn -0.14465 0.61259 0.77705
vn -0.07344 0.47242 0.87831
vn 0.09362 0.66025 0.74519
vn 0.14569 0.53115 0.83466
vn 0.32107 0.60767 0.72639
vn 0.29303 0.67646 0.67567
vn 0.15390 0.78450 0.60073
vn 0.02503 0.90339 0.42808
vn 0.09885 0.85960 0.50131
vn 0.15661 0.80465 0.57273
vn 0.15390 0.78450 0.60073
vn 0.15661 0.80465 0.57273
vn 0.29303 0.67646 0.67567
vn 0.31548 0.62184 0.71679
vn 0.06203 0.77899 0.62396
vn 0.09362 0.66025 0.74519
vn 0.29303 0.67646 0.67567
vn 0.15661 0.80465 0.57273
vn 0.15661 0.80465 0.57273
vn 0.09885 0.85960 0.50131
vn 0.09896 0.80139 0.58990
vn 0.06203 0.77899 0.62396
vn -0.32049 0.62955 0.70778
vn -0.34545 0.62148 0.70315
vn -0.16216 0.69643 0.69907
vn -0.13205 0.72846 0.67224
vn -0.34545 0.62148 0.70315
vn -0.30770 0.58671 0.74906
vn -0.14465 0.61259 0.77705
vn -0.16216 0.69643 0.69907
vn -0.16216 0.69643 0.69907
vn -0.14465 0.61259 0.77705
vn 0.09362 0.66025 0.74519
vn 0.06203 0.77899 0.62396
vn -0.16216 0.69643 0.69907
vn 0.06203 0.77899 0.62396
vn 0.09896 0.80139 0.58990
vn -0.13205 0.72846 0.67224
f 2//2 3//3 4//4 1//1 
f 9//9 7//10 10//11 8//8 
f 9//13 11//14 5//15 7//12 
f 8//17 12//18 13//19 9//16 
f 15//24 16//25 17//26 14//23 
f 19//28 14//29 17//30 18//27 
f 21//32 22//33 18//34 20//31 
f 23//36 19//37 18//38 22//35 
f 22//40 21//41 25//42 24//39 
f 26//44 23//45 22//46 24//43 
f 27//48 28//49 13//50 12//47 
f 28//52 29//53 11//54 13//51 
f 24//56 25//57 29//58 28//55 
f 30//60 26//61 24//62 28//59 
f 32//67 27//68 12//69 31//66 
f 33//71 31//72 12//73 8//70 
f 32//75 31//76 35//77 34//74 
f 37//82 34//83 35//84 36//81 
f 8//86 10//87 38//88 33//85 
f 38//90 39//91 35//92 33//89 
f 10//94 40//95 41//96 38//93 
f 29//98 42//99 5//100 11//97 
f 42//102 43//103 6//104 5//101 
f 25//106 44//107 42//108 29//105 
f 44//110 45//111 43//112 42//109 
f 21//114 46//115 44//116 25//113 
f 17//118 47//119 20//120 18//117 
f 47//122 17//123 16//124 48//121 
f 50//126 47//127 48//128 49//125 
f 51//130 46//131 21//132 20//129 
f 47//134 50//135 51//136 20//133 
f 53//138 50//139 49//140 52//137 
f 53//142 52//143 55//144 54//141 
f 56//146 57//147 54//148 55//145 
f 57//150 56//151 59//152 58//149 
f 46//154 60//155 45//156 44//153 
f 60//158 46//159 51//160 61//157 
f 50//162 53//163 61//164 51//161 
f 53//166 54//167 62//168 61//165 
f 62//170 63//171 60//172 61//169 
f 54//174 57//175 64//176 62//173 
f 57//178 58//179 65//180 64//177 
f 66//182 63//183 62//184 64//181 
f 65//186 67//187 66//188 64//185 
f 60//190 63//191 68//192 45//189 
f 63//194 66//195 69//196 68//193 
f 66//198 67//199 70//200 69//197 
f 45//202 68//203 71//204 43//201 
f 71//206 72//207 6//208 43//205 
f 7//210 6//211 72//212 73//209 
f 7//214 73//215 40//216 10//213 
f 71//218 68//219 69//220 74//217 
f 69//222 70//223 75//224 74//221 
f 2//226 76//227 77//228 3//225 
f 71//233 74//234 76//235 78//232 
f 74//237 75//238 77//239 76//236 
f 71//241 78//242 79//243 72//240 
f 73//245 72//246 79//247 80//244 
f 73//249 80//250 81//251 40//248 
f 2//253 82//254 79//255 78//252 
f 1//257 83//258 82//259 2//256 
f 80//264 82//265 84//266 81//263 
f 82//268 83//269 85//270 84//267 
f 40//272 81//273 86//274 41//271 
f 87//276 86//277 81//278 84//275 
f 84//280 85//281 88//282 87//279 
f 89//287 87//288 88//289 90//286 
f 38//291 41//292 91//293 39//290 
f 41//295 86//296 89//297 91//294 
f 93//299 89//300 90//301 92//298 
f 93//303 92//304 95//305 94//302 
f 94//307 95//308 97//309 96//306 
f 98//311 91//312 89//313 93//310 
f 99//315 36//316 35//317 39//314 
f 39//319 91//320 98//321 99//318 
f 96//323 100//324 101//325 94//322 
f 101//327 98//328 93//329 94//326 
f 99//331 98//332 101//333 102//330 
f 100//335 103//336 102//337 101//334 
f 105//339 106//340 107//341 104//338 
f 37//343 36//344 106//345 105//342 
f 36//347 99//348 102//349 106//346 
f 102//351 103//352 107//353 106//350 
f 5//5 6//6 7//7 
f 13//20 11//21 9//22 
f 30//63 28//64 27//65 
f 35//78 31//79 33//80 
f 76//229 2//230 78//231 
f 79//260 82//261 80//262 
f 86//283 87//284 89//285 
